<?xml version="1.0" encoding="UTF-8" standalone="no"?>
<!DOCTYPE svg PUBLIC "-//W3C//DTD SVG 1.1//EN"
 "http://www.w3.org/Graphics/SVG/1.1/DTD/svg11.dtd">
<!-- Generated by graphviz version 2.40.1 (20161225.0304)
 -->
<!-- Title: dependencies Pages: 1 -->
<svg width="504pt" height="284pt"
 viewBox="0.00 0.00 504.00 284.00" xmlns="http://www.w3.org/2000/svg" xmlns:xlink="http://www.w3.org/1999/xlink">
<g id="graph0" class="graph" transform="scale(1 1) rotate(0) translate(4 280)">
<title>dependencies</title>
<polygon fill="#ffffff" stroke="transparent" points="-4,4 -4,-280 500,-280 500,4 -4,4"/>
<text text-anchor="start" x="227.0091" y="-42.4" font-family="sans-serif" font-weight="bold" font-size="14.00" fill="#000000">Legend</text>
<polygon fill="#ffffb3" stroke="transparent" points="14,-10 14,-30 34,-30 34,-10 14,-10"/>
<text text-anchor="start" x="37.629" y="-15.4" font-family="sans-serif" font-size="14.00" fill="#000000"> &#160;Declarations</text>
<polygon fill="#8dd3c7" stroke="transparent" points="127,-10 127,-30 147,-30 147,-10 127,-10"/>
<text text-anchor="start" x="150.7251" y="-15.4" font-family="sans-serif" font-size="14.00" fill="#000000"> &#160;Module</text>
<polygon fill="#80b1d3" stroke="transparent" points="213,-10 213,-30 233,-30 233,-10 213,-10"/>
<text text-anchor="start" x="236.7812" y="-15.4" font-family="sans-serif" font-size="14.00" fill="#000000"> &#160;Bootstrap</text>
<polygon fill="#fdb462" stroke="transparent" points="310,-10 310,-30 330,-30 330,-10 310,-10"/>
<text text-anchor="start" x="333.6732" y="-15.4" font-family="sans-serif" font-size="14.00" fill="#000000"> &#160;Providers</text>
<polygon fill="#fb8072" stroke="transparent" points="406,-10 406,-30 426,-30 426,-10 406,-10"/>
<text text-anchor="start" x="429.7258" y="-15.4" font-family="sans-serif" font-size="14.00" fill="#000000"> &#160;Exports</text>
<g id="clust1" class="cluster">
<title>cluster_PageModule</title>
<polygon fill="none" stroke="#000000" stroke-dasharray="1,5" points="92,-70 92,-268 404,-268 404,-70 92,-70"/>
</g>
<g id="clust2" class="cluster">
<title>cluster_PageModule_declarations</title>
<polygon fill="none" stroke="#000000" points="272,-78 272,-130 396,-130 396,-78 272,-78"/>
</g>
<g id="clust5" class="cluster">
<title>cluster_PageModule_exports</title>
<polygon fill="none" stroke="#000000" points="193,-208 193,-260 321,-260 321,-208 193,-208"/>
</g>
<g id="clust7" class="cluster">
<title>cluster_PageModule_providers</title>
<polygon fill="none" stroke="#000000" points="100,-78 100,-130 264,-130 264,-78 100,-78"/>
</g>
<!-- PageComponent -->
<g id="node1" class="node">
<title>PageComponent</title>
<polygon fill="#ffffb3" stroke="#000000" points="388.0452,-122 279.9548,-122 279.9548,-86 388.0452,-86 388.0452,-122"/>
<text text-anchor="middle" x="334" y="-99.8" font-family="Times,serif" font-size="14.00" fill="#000000">PageComponent</text>
</g>
<!-- PageModule -->
<g id="node2" class="node">
<title>PageModule</title>
<polygon fill="#8dd3c7" stroke="#000000" points="300.2619,-187 297.2619,-191 276.2619,-191 273.2619,-187 213.7381,-187 213.7381,-151 300.2619,-151 300.2619,-187"/>
<text text-anchor="middle" x="257" y="-164.8" font-family="Times,serif" font-size="14.00" fill="#000000">PageModule</text>
</g>
<!-- PageComponent&#45;&gt;PageModule -->
<g id="edge1" class="edge">
<title>PageComponent&#45;&gt;PageModule</title>
<path fill="none" stroke="#000000" d="M290.0544,-122.1061C290.0544,-122.1061 290.0544,-140.991 290.0544,-140.991"/>
<polygon fill="#000000" stroke="#000000" points="286.5544,-140.9909 290.0544,-150.991 293.5544,-140.991 286.5544,-140.9909"/>
</g>
<!-- PageComponent  -->
<g id="node3" class="node">
<title>PageComponent </title>
<polygon fill="#fb8072" stroke="#000000" points="313.0442,-252 200.9558,-252 200.9558,-216 313.0442,-216 313.0442,-252"/>
<text text-anchor="middle" x="257" y="-229.8" font-family="Times,serif" font-size="14.00" fill="#000000">PageComponent </text>
</g>
<!-- PageModule&#45;&gt;PageComponent  -->
<g id="edge2" class="edge">
<title>PageModule&#45;&gt;PageComponent </title>
<path fill="none" stroke="#000000" stroke-dasharray="5,2" d="M257,-187.1061C257,-187.1061 257,-205.991 257,-205.991"/>
<polygon fill="#000000" stroke="#000000" points="253.5001,-205.9909 257,-215.991 260.5001,-205.991 253.5001,-205.9909"/>
</g>
<!-- SPANavService -->
<g id="node4" class="node">
<title>SPANavService</title>
<ellipse fill="#fdb462" stroke="#000000" cx="182" cy="-104" rx="73.5734" ry="18"/>
<text text-anchor="middle" x="182" y="-99.8" font-family="Times,serif" font-size="14.00" fill="#000000">SPANavService</text>
</g>
<!-- SPANavService&#45;&gt;PageModule -->
<g id="edge3" class="edge">
<title>SPANavService&#45;&gt;PageModule</title>
<path fill="none" stroke="#000000" d="M234.7028,-116.8419C234.7028,-116.8419 234.7028,-140.5231 234.7028,-140.5231"/>
<polygon fill="#000000" stroke="#000000" points="231.2029,-140.523 234.7028,-150.5231 238.2029,-140.5231 231.2029,-140.523"/>
</g>
</g>
</svg>
