<?xml version="1.0" encoding="UTF-8" standalone="no"?>
<!DOCTYPE svg PUBLIC "-//W3C//DTD SVG 1.1//EN"
 "http://www.w3.org/Graphics/SVG/1.1/DTD/svg11.dtd">
<!-- Generated by graphviz version 2.40.1 (20161225.0304)
 -->
<!-- Title: dependencies Pages: 1 -->
<svg width="1602pt" height="295pt"
 viewBox="0.00 0.00 1602.00 295.00" xmlns="http://www.w3.org/2000/svg" xmlns:xlink="http://www.w3.org/1999/xlink">
<g id="graph0" class="graph" transform="scale(1 1) rotate(0) translate(4 291)">
<title>dependencies</title>
<polygon fill="#ffffff" stroke="transparent" points="-4,4 -4,-291 1598,-291 1598,4 -4,4"/>
<text text-anchor="start" x="776.0091" y="-42.4" font-family="sans-serif" font-weight="bold" font-size="14.00" fill="#000000">Legend</text>
<polygon fill="#ffffb3" stroke="transparent" points="563,-10 563,-30 583,-30 583,-10 563,-10"/>
<text text-anchor="start" x="586.629" y="-15.4" font-family="sans-serif" font-size="14.00" fill="#000000"> &#160;Declarations</text>
<polygon fill="#8dd3c7" stroke="transparent" points="676,-10 676,-30 696,-30 696,-10 676,-10"/>
<text text-anchor="start" x="699.7251" y="-15.4" font-family="sans-serif" font-size="14.00" fill="#000000"> &#160;Module</text>
<polygon fill="#80b1d3" stroke="transparent" points="762,-10 762,-30 782,-30 782,-10 762,-10"/>
<text text-anchor="start" x="785.7812" y="-15.4" font-family="sans-serif" font-size="14.00" fill="#000000"> &#160;Bootstrap</text>
<polygon fill="#fdb462" stroke="transparent" points="859,-10 859,-30 879,-30 879,-10 859,-10"/>
<text text-anchor="start" x="882.6732" y="-15.4" font-family="sans-serif" font-size="14.00" fill="#000000"> &#160;Providers</text>
<polygon fill="#fb8072" stroke="transparent" points="955,-10 955,-30 975,-30 975,-10 955,-10"/>
<text text-anchor="start" x="978.7258" y="-15.4" font-family="sans-serif" font-size="14.00" fill="#000000"> &#160;Exports</text>
<g id="clust1" class="cluster">
<title>cluster_AdminModule</title>
<polygon fill="none" stroke="#000000" stroke-dasharray="1,5" points="8,-70 8,-206 160,-206 160,-70 8,-70"/>
</g>
<g id="clust2" class="cluster">
<title>cluster_AdminModule_declarations</title>
<polygon fill="none" stroke="#000000" points="16,-78 16,-130 152,-130 152,-78 16,-78"/>
</g>
<g id="clust8" class="cluster">
<title>cluster_AppModule</title>
<polygon fill="none" stroke="#000000" stroke-dasharray="1,5" points="168,-70 168,-206 306,-206 306,-70 168,-70"/>
</g>
<g id="clust9" class="cluster">
<title>cluster_AppModule_declarations</title>
<polygon fill="none" stroke="#000000" points="176,-78 176,-130 298,-130 298,-78 176,-78"/>
</g>
<g id="clust15" class="cluster">
<title>cluster_FooterModule</title>
<polygon fill="none" stroke="#000000" stroke-dasharray="1,5" points="314,-70 314,-206 464,-206 464,-70 314,-70"/>
</g>
<g id="clust16" class="cluster">
<title>cluster_FooterModule_declarations</title>
<polygon fill="none" stroke="#000000" points="322,-78 322,-130 456,-130 456,-78 322,-78"/>
</g>
<g id="clust22" class="cluster">
<title>cluster_HeaderModule</title>
<polygon fill="none" stroke="#000000" stroke-dasharray="1,5" points="472,-70 472,-279 630,-279 630,-70 472,-70"/>
</g>
<g id="clust23" class="cluster">
<title>cluster_HeaderModule_declarations</title>
<polygon fill="none" stroke="#000000" points="483,-78 483,-130 621,-130 621,-78 483,-78"/>
</g>
<g id="clust26" class="cluster">
<title>cluster_HeaderModule_exports</title>
<polygon fill="none" stroke="#000000" points="480,-219 480,-271 622,-271 622,-219 480,-219"/>
</g>
<g id="clust29" class="cluster">
<title>cluster_HomeModule</title>
<polygon fill="none" stroke="#000000" stroke-dasharray="1,5" points="685,-146 685,-271 1069,-271 1069,-146 685,-146"/>
</g>
<g id="clust30" class="cluster">
<title>cluster_HomeModule_declarations</title>
<polygon fill="none" stroke="#000000" points="803,-154 803,-206 1061,-206 1061,-154 803,-154"/>
</g>
<g id="clust33" class="cluster">
<title>cluster_HomeModule_imports</title>
<polygon fill="none" stroke="#000000" points="693,-154 693,-206 795,-206 795,-154 693,-154"/>
</g>
<g id="clust37" class="cluster">
<title>cluster_LoginModule</title>
<polygon fill="none" stroke="#000000" stroke-dasharray="1,5" points="1094,-70 1094,-206 1240,-206 1240,-70 1094,-70"/>
</g>
<g id="clust38" class="cluster">
<title>cluster_LoginModule_declarations</title>
<polygon fill="none" stroke="#000000" points="1102,-78 1102,-130 1232,-130 1232,-78 1102,-78"/>
</g>
<g id="clust44" class="cluster">
<title>cluster_NotFoundModule</title>
<polygon fill="none" stroke="#000000" stroke-dasharray="1,5" points="1248,-70 1248,-206 1418,-206 1418,-70 1248,-70"/>
</g>
<g id="clust45" class="cluster">
<title>cluster_NotFoundModule_declarations</title>
<polygon fill="none" stroke="#000000" points="1256,-78 1256,-130 1410,-130 1410,-78 1256,-78"/>
</g>
<g id="clust51" class="cluster">
<title>cluster_PageModule</title>
<polygon fill="none" stroke="#000000" stroke-dasharray="1,5" points="638,-70 638,-138 1086,-138 1086,-70 638,-70"/>
</g>
<g id="clust52" class="cluster">
<title>cluster_PageModule_declarations</title>
<polygon fill="none" stroke="#000000" points="954,-78 954,-130 1078,-130 1078,-78 954,-78"/>
</g>
<g id="clust55" class="cluster">
<title>cluster_PageModule_exports</title>
<polygon fill="none" stroke="#000000" points="818,-78 818,-130 946,-130 946,-78 818,-78"/>
</g>
<g id="clust57" class="cluster">
<title>cluster_PageModule_providers</title>
<polygon fill="none" stroke="#000000" points="646,-78 646,-130 810,-130 810,-78 646,-78"/>
</g>
<g id="clust58" class="cluster">
<title>cluster_TopNavModule</title>
<polygon fill="none" stroke="#000000" stroke-dasharray="1,5" points="1426,-70 1426,-206 1586,-206 1586,-70 1426,-70"/>
</g>
<g id="clust59" class="cluster">
<title>cluster_TopNavModule_declarations</title>
<polygon fill="none" stroke="#000000" points="1434,-78 1434,-130 1578,-130 1578,-78 1434,-78"/>
</g>
<!-- AdminComponent -->
<g id="node1" class="node">
<title>AdminComponent</title>
<polygon fill="#ffffb3" stroke="#000000" points="144.2204,-122 23.7796,-122 23.7796,-86 144.2204,-86 144.2204,-122"/>
<text text-anchor="middle" x="84" y="-99.8" font-family="Times,serif" font-size="14.00" fill="#000000">AdminComponent</text>
</g>
<!-- AdminModule -->
<g id="node2" class="node">
<title>AdminModule</title>
<polygon fill="#8dd3c7" stroke="#000000" points="133.4386,-198 130.4386,-202 109.4386,-202 106.4386,-198 34.5614,-198 34.5614,-162 133.4386,-162 133.4386,-198"/>
<text text-anchor="middle" x="84" y="-175.8" font-family="Times,serif" font-size="14.00" fill="#000000">AdminModule</text>
</g>
<!-- AdminComponent&#45;&gt;AdminModule -->
<g id="edge1" class="edge">
<title>AdminComponent&#45;&gt;AdminModule</title>
<path fill="none" stroke="#000000" d="M84,-122.0109C84,-122.0109 84,-151.855 84,-151.855"/>
<polygon fill="#000000" stroke="#000000" points="80.5001,-151.8549 84,-161.855 87.5001,-151.855 80.5001,-151.8549"/>
</g>
<!-- AppComponent -->
<g id="node3" class="node">
<title>AppComponent</title>
<polygon fill="#ffffb3" stroke="#000000" points="289.9399,-122 184.0601,-122 184.0601,-86 289.9399,-86 289.9399,-122"/>
<text text-anchor="middle" x="237" y="-99.8" font-family="Times,serif" font-size="14.00" fill="#000000">AppComponent</text>
</g>
<!-- AppModule -->
<g id="node4" class="node">
<title>AppModule</title>
<polygon fill="#8dd3c7" stroke="#000000" points="278.6571,-198 275.6571,-202 254.6571,-202 251.6571,-198 195.3429,-198 195.3429,-162 278.6571,-162 278.6571,-198"/>
<text text-anchor="middle" x="237" y="-175.8" font-family="Times,serif" font-size="14.00" fill="#000000">AppModule</text>
</g>
<!-- AppComponent&#45;&gt;AppModule -->
<g id="edge2" class="edge">
<title>AppComponent&#45;&gt;AppModule</title>
<path fill="none" stroke="#000000" d="M237,-122.0109C237,-122.0109 237,-151.855 237,-151.855"/>
<polygon fill="#000000" stroke="#000000" points="233.5001,-151.8549 237,-161.855 240.5001,-151.855 233.5001,-151.8549"/>
</g>
<!-- FooterComponent -->
<g id="node5" class="node">
<title>FooterComponent</title>
<polygon fill="#ffffb3" stroke="#000000" points="447.8809,-122 330.1191,-122 330.1191,-86 447.8809,-86 447.8809,-122"/>
<text text-anchor="middle" x="389" y="-99.8" font-family="Times,serif" font-size="14.00" fill="#000000">FooterComponent</text>
</g>
<!-- FooterModule -->
<g id="node6" class="node">
<title>FooterModule</title>
<polygon fill="#8dd3c7" stroke="#000000" points="437.0983,-198 434.0983,-202 413.0983,-202 410.0983,-198 340.9017,-198 340.9017,-162 437.0983,-162 437.0983,-198"/>
<text text-anchor="middle" x="389" y="-175.8" font-family="Times,serif" font-size="14.00" fill="#000000">FooterModule</text>
</g>
<!-- FooterComponent&#45;&gt;FooterModule -->
<g id="edge3" class="edge">
<title>FooterComponent&#45;&gt;FooterModule</title>
<path fill="none" stroke="#000000" d="M389,-122.0109C389,-122.0109 389,-151.855 389,-151.855"/>
<polygon fill="#000000" stroke="#000000" points="385.5001,-151.8549 389,-161.855 392.5001,-151.855 385.5001,-151.8549"/>
</g>
<!-- HeaderComponent -->
<g id="node7" class="node">
<title>HeaderComponent</title>
<polygon fill="#ffffb3" stroke="#000000" points="612.7437,-122 491.2563,-122 491.2563,-86 612.7437,-86 612.7437,-122"/>
<text text-anchor="middle" x="552" y="-99.8" font-family="Times,serif" font-size="14.00" fill="#000000">HeaderComponent</text>
</g>
<!-- HeaderModule -->
<g id="node8" class="node">
<title>HeaderModule</title>
<polygon fill="#8dd3c7" stroke="#000000" points="601.9608,-198 598.9608,-202 577.9608,-202 574.9608,-198 502.0392,-198 502.0392,-162 601.9608,-162 601.9608,-198"/>
<text text-anchor="middle" x="552" y="-175.8" font-family="Times,serif" font-size="14.00" fill="#000000">HeaderModule</text>
</g>
<!-- HeaderComponent&#45;&gt;HeaderModule -->
<g id="edge4" class="edge">
<title>HeaderComponent&#45;&gt;HeaderModule</title>
<path fill="none" stroke="#000000" d="M552,-122.0109C552,-122.0109 552,-151.855 552,-151.855"/>
<polygon fill="#000000" stroke="#000000" points="548.5001,-151.8549 552,-161.855 555.5001,-151.855 548.5001,-151.8549"/>
</g>
<!-- HeaderComponent  -->
<g id="node9" class="node">
<title>HeaderComponent </title>
<polygon fill="#fb8072" stroke="#000000" points="613.7436,-263 488.2564,-263 488.2564,-227 613.7436,-227 613.7436,-263"/>
<text text-anchor="middle" x="551" y="-240.8" font-family="Times,serif" font-size="14.00" fill="#000000">HeaderComponent </text>
</g>
<!-- HeaderModule&#45;&gt;HeaderComponent  -->
<g id="edge5" class="edge">
<title>HeaderModule&#45;&gt;HeaderComponent </title>
<path fill="none" stroke="#000000" stroke-dasharray="5,2" d="M552,-198.1061C552,-198.1061 552,-216.991 552,-216.991"/>
<polygon fill="#000000" stroke="#000000" points="548.5001,-216.9909 552,-226.991 555.5001,-216.991 548.5001,-216.9909"/>
</g>
<!-- HomeModule -->
<g id="node12" class="node">
<title>HomeModule</title>
<polygon fill="#8dd3c7" stroke="#000000" points="850.7619,-263 847.7619,-267 826.7619,-267 823.7619,-263 757.2381,-263 757.2381,-227 850.7619,-227 850.7619,-263"/>
<text text-anchor="middle" x="804" y="-240.8" font-family="Times,serif" font-size="14.00" fill="#000000">HomeModule</text>
</g>
<!-- HeaderModule&#45;&gt;HomeModule -->
<g id="edge8" class="edge">
<title>HeaderModule&#45;&gt;HomeModule</title>
<path fill="none" stroke="#000000" d="M602.0116,-180C619.0668,-180 633.9177,-180 633.9177,-180 633.9177,-180 633.9177,-245 633.9177,-245 633.9177,-245 747.074,-245 747.074,-245"/>
<polygon fill="#000000" stroke="#000000" points="747.0741,-248.5001 757.074,-245 747.074,-241.5001 747.0741,-248.5001"/>
</g>
<!-- HomeComponent -->
<g id="node10" class="node">
<title>HomeComponent</title>
<polygon fill="#ffffb3" stroke="#000000" points="1052.5451,-198 937.4549,-198 937.4549,-162 1052.5451,-162 1052.5451,-198"/>
<text text-anchor="middle" x="995" y="-175.8" font-family="Times,serif" font-size="14.00" fill="#000000">HomeComponent</text>
</g>
<!-- HomeComponent&#45;&gt;HomeModule -->
<g id="edge6" class="edge">
<title>HomeComponent&#45;&gt;HomeModule</title>
<path fill="none" stroke="#000000" d="M995,-198.1061C995,-217.3391 995,-245 995,-245 995,-245 861.2135,-245 861.2135,-245"/>
<polygon fill="#000000" stroke="#000000" points="861.2135,-241.5001 851.2135,-245 861.2135,-248.5001 861.2135,-241.5001"/>
</g>
<!-- VisibleDirective -->
<g id="node11" class="node">
<title>VisibleDirective</title>
<polygon fill="#ffffb3" stroke="#000000" points="919.0215,-198 810.9785,-198 810.9785,-162 919.0215,-162 919.0215,-198"/>
<text text-anchor="middle" x="865" y="-175.8" font-family="Times,serif" font-size="14.00" fill="#000000">VisibleDirective</text>
</g>
<!-- VisibleDirective&#45;&gt;HomeModule -->
<g id="edge7" class="edge">
<title>VisibleDirective&#45;&gt;HomeModule</title>
<path fill="none" stroke="#000000" d="M830.8103,-198.1061C830.8103,-198.1061 830.8103,-216.991 830.8103,-216.991"/>
<polygon fill="#000000" stroke="#000000" points="827.3104,-216.9909 830.8103,-226.991 834.3104,-216.991 827.3104,-216.9909"/>
</g>
<!-- PageModule -->
<g id="node13" class="node">
<title>PageModule</title>
<polygon fill="#8dd3c7" stroke="#000000" points="787.2619,-198 784.2619,-202 763.2619,-202 760.2619,-198 700.7381,-198 700.7381,-162 787.2619,-162 787.2619,-198"/>
<text text-anchor="middle" x="744" y="-175.8" font-family="Times,serif" font-size="14.00" fill="#000000">PageModule</text>
</g>
<!-- PageModule&#45;&gt;HomeModule -->
<g id="edge9" class="edge">
<title>PageModule&#45;&gt;HomeModule</title>
<path fill="none" stroke="#000000" d="M772.25,-198.1061C772.25,-198.1061 772.25,-216.991 772.25,-216.991"/>
<polygon fill="#000000" stroke="#000000" points="768.7501,-216.9909 772.25,-226.991 775.7501,-216.991 768.7501,-216.9909"/>
</g>
<!-- PageComponent  -->
<g id="node19" class="node">
<title>PageComponent </title>
<polygon fill="#fb8072" stroke="#000000" points="938.0442,-122 825.9558,-122 825.9558,-86 938.0442,-86 938.0442,-122"/>
<text text-anchor="middle" x="882" y="-99.8" font-family="Times,serif" font-size="14.00" fill="#000000">PageComponent </text>
</g>
<!-- PageModule&#45;&gt;PageComponent  -->
<g id="edge13" class="edge">
<title>PageModule&#45;&gt;PageComponent </title>
<path fill="none" stroke="#000000" stroke-dasharray="5,2" d="M787.5821,-180C798.046,-180 806.2631,-180 806.2631,-180 806.2631,-180 806.2631,-104 806.2631,-104 806.2631,-104 815.7672,-104 815.7672,-104"/>
<polygon fill="#000000" stroke="#000000" points="815.7673,-107.5001 825.7672,-104 815.7672,-100.5001 815.7673,-107.5001"/>
</g>
<!-- LoginComponent -->
<g id="node14" class="node">
<title>LoginComponent</title>
<polygon fill="#ffffb3" stroke="#000000" points="1224.2758,-122 1109.7242,-122 1109.7242,-86 1224.2758,-86 1224.2758,-122"/>
<text text-anchor="middle" x="1167" y="-99.8" font-family="Times,serif" font-size="14.00" fill="#000000">LoginComponent</text>
</g>
<!-- LoginModule -->
<g id="node15" class="node">
<title>LoginModule</title>
<polygon fill="#8dd3c7" stroke="#000000" points="1213.493,-198 1210.493,-202 1189.493,-202 1186.493,-198 1120.507,-198 1120.507,-162 1213.493,-162 1213.493,-198"/>
<text text-anchor="middle" x="1167" y="-175.8" font-family="Times,serif" font-size="14.00" fill="#000000">LoginModule</text>
</g>
<!-- LoginComponent&#45;&gt;LoginModule -->
<g id="edge10" class="edge">
<title>LoginComponent&#45;&gt;LoginModule</title>
<path fill="none" stroke="#000000" d="M1167,-122.0109C1167,-122.0109 1167,-151.855 1167,-151.855"/>
<polygon fill="#000000" stroke="#000000" points="1163.5001,-151.8549 1167,-161.855 1170.5001,-151.855 1163.5001,-151.8549"/>
</g>
<!-- NotFoundComponent -->
<g id="node16" class="node">
<title>NotFoundComponent</title>
<polygon fill="#ffffb3" stroke="#000000" points="1402.1122,-122 1263.8878,-122 1263.8878,-86 1402.1122,-86 1402.1122,-122"/>
<text text-anchor="middle" x="1333" y="-99.8" font-family="Times,serif" font-size="14.00" fill="#000000">NotFoundComponent</text>
</g>
<!-- NotFoundModule -->
<g id="node17" class="node">
<title>NotFoundModule</title>
<polygon fill="#8dd3c7" stroke="#000000" points="1391.3301,-198 1388.3301,-202 1367.3301,-202 1364.3301,-198 1274.6699,-198 1274.6699,-162 1391.3301,-162 1391.3301,-198"/>
<text text-anchor="middle" x="1333" y="-175.8" font-family="Times,serif" font-size="14.00" fill="#000000">NotFoundModule</text>
</g>
<!-- NotFoundComponent&#45;&gt;NotFoundModule -->
<g id="edge11" class="edge">
<title>NotFoundComponent&#45;&gt;NotFoundModule</title>
<path fill="none" stroke="#000000" d="M1333,-122.0109C1333,-122.0109 1333,-151.855 1333,-151.855"/>
<polygon fill="#000000" stroke="#000000" points="1329.5001,-151.8549 1333,-161.855 1336.5001,-151.855 1329.5001,-151.8549"/>
</g>
<!-- PageComponent -->
<g id="node18" class="node">
<title>PageComponent</title>
<polygon fill="#ffffb3" stroke="#000000" points="1070.0452,-122 961.9548,-122 961.9548,-86 1070.0452,-86 1070.0452,-122"/>
<text text-anchor="middle" x="1016" y="-99.8" font-family="Times,serif" font-size="14.00" fill="#000000">PageComponent</text>
</g>
<!-- PageComponent&#45;&gt;PageModule -->
<g id="edge12" class="edge">
<title>PageComponent&#45;&gt;PageModule</title>
<path fill="none" stroke="#000000" d="M1007.25,-122.1097C1007.25,-131.897 1007.25,-142 1007.25,-142 1007.25,-142 758.4603,-142 758.4603,-142 758.4603,-142 758.4603,-151.8903 758.4603,-151.8903"/>
<polygon fill="#000000" stroke="#000000" points="754.9604,-151.8903 758.4603,-161.8903 761.9604,-151.8904 754.9604,-151.8903"/>
</g>
<!-- SPANavService -->
<g id="node20" class="node">
<title>SPANavService</title>
<ellipse fill="#fdb462" stroke="#000000" cx="728" cy="-104" rx="73.5734" ry="18"/>
<text text-anchor="middle" x="728" y="-99.8" font-family="Times,serif" font-size="14.00" fill="#000000">SPANavService</text>
</g>
<!-- SPANavService&#45;&gt;PageModule -->
<g id="edge14" class="edge">
<title>SPANavService&#45;&gt;PageModule</title>
<path fill="none" stroke="#000000" d="M729.5397,-122.0109C729.5397,-122.0109 729.5397,-151.855 729.5397,-151.855"/>
<polygon fill="#000000" stroke="#000000" points="726.0398,-151.8549 729.5397,-161.855 733.0398,-151.855 726.0398,-151.8549"/>
</g>
<!-- TopNavComponent -->
<g id="node21" class="node">
<title>TopNavComponent</title>
<polygon fill="#ffffb3" stroke="#000000" points="1569.7064,-122 1442.2936,-122 1442.2936,-86 1569.7064,-86 1569.7064,-122"/>
<text text-anchor="middle" x="1506" y="-99.8" font-family="Times,serif" font-size="14.00" fill="#000000">TopNavComponent</text>
</g>
<!-- TopNavModule -->
<g id="node22" class="node">
<title>TopNavModule</title>
<polygon fill="#8dd3c7" stroke="#000000" points="1558.9245,-198 1555.9245,-202 1534.9245,-202 1531.9245,-198 1453.0755,-198 1453.0755,-162 1558.9245,-162 1558.9245,-198"/>
<text text-anchor="middle" x="1506" y="-175.8" font-family="Times,serif" font-size="14.00" fill="#000000">TopNavModule</text>
</g>
<!-- TopNavComponent&#45;&gt;TopNavModule -->
<g id="edge15" class="edge">
<title>TopNavComponent&#45;&gt;TopNavModule</title>
<path fill="none" stroke="#000000" d="M1506,-122.0109C1506,-122.0109 1506,-151.855 1506,-151.855"/>
<polygon fill="#000000" stroke="#000000" points="1502.5001,-151.8549 1506,-161.855 1509.5001,-151.855 1502.5001,-151.8549"/>
</g>
</g>
</svg>
