<?xml version="1.0" encoding="UTF-8" standalone="no"?>
<!DOCTYPE svg PUBLIC "-//W3C//DTD SVG 1.1//EN"
 "http://www.w3.org/Graphics/SVG/1.1/DTD/svg11.dtd">
<!-- Generated by graphviz version 2.40.1 (20161225.0304)
 -->
<!-- Title: dependencies Pages: 1 -->
<svg width="526pt" height="211pt"
 viewBox="0.00 0.00 526.00 211.00" xmlns="http://www.w3.org/2000/svg" xmlns:xlink="http://www.w3.org/1999/xlink">
<g id="graph0" class="graph" transform="scale(1 1) rotate(0) translate(4 207)">
<title>dependencies</title>
<polygon fill="#ffffff" stroke="transparent" points="-4,4 -4,-207 522,-207 522,4 -4,4"/>
<text text-anchor="start" x="238.0091" y="-42.4" font-family="sans-serif" font-weight="bold" font-size="14.00" fill="#000000">Legend</text>
<polygon fill="#ffffb3" stroke="transparent" points="25,-10 25,-30 45,-30 45,-10 25,-10"/>
<text text-anchor="start" x="48.629" y="-15.4" font-family="sans-serif" font-size="14.00" fill="#000000"> &#160;Declarations</text>
<polygon fill="#8dd3c7" stroke="transparent" points="138,-10 138,-30 158,-30 158,-10 138,-10"/>
<text text-anchor="start" x="161.7251" y="-15.4" font-family="sans-serif" font-size="14.00" fill="#000000"> &#160;Module</text>
<polygon fill="#80b1d3" stroke="transparent" points="224,-10 224,-30 244,-30 244,-10 224,-10"/>
<text text-anchor="start" x="247.7812" y="-15.4" font-family="sans-serif" font-size="14.00" fill="#000000"> &#160;Bootstrap</text>
<polygon fill="#fdb462" stroke="transparent" points="321,-10 321,-30 341,-30 341,-10 321,-10"/>
<text text-anchor="start" x="344.6732" y="-15.4" font-family="sans-serif" font-size="14.00" fill="#000000"> &#160;Providers</text>
<polygon fill="#fb8072" stroke="transparent" points="417,-10 417,-30 437,-30 437,-10 417,-10"/>
<text text-anchor="start" x="440.7258" y="-15.4" font-family="sans-serif" font-size="14.00" fill="#000000"> &#160;Exports</text>
<g id="clust1" class="cluster">
<title>cluster_HomeModule</title>
<polygon fill="none" stroke="#000000" stroke-dasharray="1,5" points="8,-70 8,-195 510,-195 510,-70 8,-70"/>
</g>
<g id="clust2" class="cluster">
<title>cluster_HomeModule_declarations</title>
<polygon fill="none" stroke="#000000" points="244,-78 244,-130 502,-130 502,-78 244,-78"/>
</g>
<g id="clust5" class="cluster">
<title>cluster_HomeModule_imports</title>
<polygon fill="none" stroke="#000000" points="16,-78 16,-130 236,-130 236,-78 16,-78"/>
</g>
<!-- HomeComponent -->
<g id="node1" class="node">
<title>HomeComponent</title>
<polygon fill="#ffffb3" stroke="#000000" points="493.5451,-122 378.4549,-122 378.4549,-86 493.5451,-86 493.5451,-122"/>
<text text-anchor="middle" x="436" y="-99.8" font-family="Times,serif" font-size="14.00" fill="#000000">HomeComponent</text>
</g>
<!-- HomeModule -->
<g id="node3" class="node">
<title>HomeModule</title>
<polygon fill="#8dd3c7" stroke="#000000" points="288.7619,-187 285.7619,-191 264.7619,-191 261.7619,-187 195.2381,-187 195.2381,-151 288.7619,-151 288.7619,-187"/>
<text text-anchor="middle" x="242" y="-164.8" font-family="Times,serif" font-size="14.00" fill="#000000">HomeModule</text>
</g>
<!-- HomeComponent&#45;&gt;HomeModule -->
<g id="edge1" class="edge">
<title>HomeComponent&#45;&gt;HomeModule</title>
<path fill="none" stroke="#000000" d="M436,-122.1061C436,-141.3391 436,-169 436,-169 436,-169 298.962,-169 298.962,-169"/>
<polygon fill="#000000" stroke="#000000" points="298.962,-165.5001 288.962,-169 298.962,-172.5001 298.962,-165.5001"/>
</g>
<!-- VisibleDirective -->
<g id="node2" class="node">
<title>VisibleDirective</title>
<polygon fill="#ffffb3" stroke="#000000" points="360.0215,-122 251.9785,-122 251.9785,-86 360.0215,-86 360.0215,-122"/>
<text text-anchor="middle" x="306" y="-99.8" font-family="Times,serif" font-size="14.00" fill="#000000">VisibleDirective</text>
</g>
<!-- VisibleDirective&#45;&gt;HomeModule -->
<g id="edge2" class="edge">
<title>VisibleDirective&#45;&gt;HomeModule</title>
<path fill="none" stroke="#000000" d="M270.3103,-122.1061C270.3103,-122.1061 270.3103,-140.991 270.3103,-140.991"/>
<polygon fill="#000000" stroke="#000000" points="266.8104,-140.9909 270.3103,-150.991 273.8104,-140.991 266.8104,-140.9909"/>
</g>
<!-- HeaderModule -->
<g id="node4" class="node">
<title>HeaderModule</title>
<polygon fill="#8dd3c7" stroke="#000000" points="227.9608,-122 224.9608,-126 203.9608,-126 200.9608,-122 128.0392,-122 128.0392,-86 227.9608,-86 227.9608,-122"/>
<text text-anchor="middle" x="178" y="-99.8" font-family="Times,serif" font-size="14.00" fill="#000000">HeaderModule</text>
</g>
<!-- HeaderModule&#45;&gt;HomeModule -->
<g id="edge3" class="edge">
<title>HeaderModule&#45;&gt;HomeModule</title>
<path fill="none" stroke="#000000" d="M211.5498,-122.1061C211.5498,-122.1061 211.5498,-140.991 211.5498,-140.991"/>
<polygon fill="#000000" stroke="#000000" points="208.0499,-140.9909 211.5498,-150.991 215.0499,-140.991 208.0499,-140.9909"/>
</g>
<!-- PageModule -->
<g id="node5" class="node">
<title>PageModule</title>
<polygon fill="#8dd3c7" stroke="#000000" points="110.2619,-122 107.2619,-126 86.2619,-126 83.2619,-122 23.7381,-122 23.7381,-86 110.2619,-86 110.2619,-122"/>
<text text-anchor="middle" x="67" y="-99.8" font-family="Times,serif" font-size="14.00" fill="#000000">PageModule</text>
</g>
<!-- PageModule&#45;&gt;HomeModule -->
<g id="edge4" class="edge">
<title>PageModule&#45;&gt;HomeModule</title>
<path fill="none" stroke="#000000" d="M67,-122.1061C67,-141.3391 67,-169 67,-169 67,-169 185.1032,-169 185.1032,-169"/>
<polygon fill="#000000" stroke="#000000" points="185.1032,-172.5001 195.1032,-169 185.1032,-165.5001 185.1032,-172.5001"/>
</g>
</g>
</svg>
